HIERARCHY
ROOT Hips
{
	OFFSET 0.00 0.00 0.00
	CHANNELS 6 Xposition Yposition Zposition Zrotation Xrotation Yrotation
	JOINT LeftUpLeg
	{
		OFFSET 0.0000 -0.0000 -4.0865
		CHANNELS 3 Zrotation Xrotation Yrotation
		JOINT LeftLowLeg
		{
			OFFSET -0.0000 -19.8189 -3.4946
			CHANNELS 3 Zrotation Xrotation Yrotation
			JOINT LeftFoot
			{
				OFFSET -0.0000 -16.5094 -2.9110
				CHANNELS 3 Zrotation Xrotation Yrotation
				JOINT ltoes
				{
					OFFSET 6.0988 -3.4677 -0.6114
					CHANNELS 3 Zrotation Xrotation Yrotation
					End Site
					{
						OFFSET 4.0485 -0.0000 0.0000
					}
				}
			}
		}
	}
	JOINT RightUpLeg
	{
		OFFSET -0.0000 -0.0000 4.0865
		CHANNELS 3 Zrotation Xrotation Yrotation
		JOINT RightLowLeg
		{
			OFFSET 0.0000 -19.7514 3.4827
			CHANNELS 3 Zrotation Xrotation Yrotation
			JOINT RightFoot
			{
				OFFSET 0.0000 -16.6186 2.9303
				CHANNELS 3 Zrotation Xrotation Yrotation
				JOINT rtoes
				{
					OFFSET 6.0607 -3.4460 0.6076
					CHANNELS 3 Zrotation Xrotation Yrotation
					End Site
					{
						OFFSET 4.0107 -0.0000 -0.0000
					}
				}
			}
		}
	}
	JOINT upperback
	{
		OFFSET 0.0000 0.0000 0.0000
		CHANNELS 3 Zrotation Xrotation Yrotation
		JOINT Chest
		{
			OFFSET -3.6284 10.3090 -0.1315
			CHANNELS 3 Zrotation Xrotation Yrotation
			JOINT Neck
			{
				OFFSET 0.4806 11.5884 -0.7464
				CHANNELS 3 Zrotation Xrotation Yrotation
				JOINT Head
				{
					OFFSET 0.0599 3.9212 0.0045
					CHANNELS 3 Zrotation Xrotation Yrotation
					End Site
					{
						OFFSET 0.7148 3.5292 0.4213
					}
				}
			}
			JOINT Chest
			{
				OFFSET 0.4806 11.5884 -0.7464
				CHANNELS 3 Zrotation Xrotation Yrotation
				JOINT LeftUpArm
				{
					OFFSET 0.0000 -0.0000 -6.9157
					CHANNELS 3 Zrotation Xrotation Yrotation
					JOINT LeftLowArm
					{
						OFFSET -1.1952 -0.0000 -13.6616
						CHANNELS 3 Zrotation Xrotation Yrotation
						JOINT LeftHand
						{
							OFFSET 1.1153 -0.0000 -12.7479
							CHANNELS 3 Zrotation Xrotation Yrotation
							JOINT lfingers
							{
								OFFSET 0.1227 -0.0000 -1.4030
								CHANNELS 3 Zrotation Xrotation Yrotation
								End Site
								{
									OFFSET 0.1372 -0.0000 -1.5686
								}
							}
						}
					}
				}
			}
			JOINT Chest
			{
				OFFSET 0.4806 11.5884 -0.7464
				CHANNELS 3 Zrotation Xrotation Yrotation
				JOINT RightUpArm
				{
					OFFSET -0.0000 0.0000 7.0066
					CHANNELS 3 Zrotation Xrotation Yrotation
					JOINT RightLowArm
					{
						OFFSET -1.1183 -0.0000 12.7827
						CHANNELS 3 Zrotation Xrotation Yrotation
						JOINT RightHand
						{
							OFFSET 1.1229 -0.0000 12.8350
							CHANNELS 3 Zrotation Xrotation Yrotation
							JOINT rfingers
							{
								OFFSET 0.1204 -0.0000 1.3757
								CHANNELS 3 Zrotation Xrotation Yrotation
								End Site
								{
									OFFSET 0.1346 -0.0000 1.5381
								}
							}
						}
					}
				}
			}
		}
	}
}
MOTION
Frames: 6
Frame Time: 0.033333
38.7417 36.0428 15.3488 7.3542 -15.9975 63.9336 63.4540 4.9659 -4.6264 -72.1765 -7.0517 9.6637 -13.6463 3.1727 -13.1691 14.7149 -0.3315 -2.5671 18.4978 5.8792 -9.7106 -50.4578 3.6867 -7.8150 18.1943 -2.2041 -5.4304 20.3604 0.6318 3.5172 -37.1139 -2.4112 4.8498 0.9918 5.5089 6.2656 -12.7326 0.1711 -15.6103 34.9443 15.0247 -21.1884 0.1458 -7.7953 1.0746 46.5649 -49.9910 46.7185 9.8038 72.8317 -95.2515 -3.0928 6.3254 31.1240 -2.4953 -26.4561 -0.5866 0.0590 -0.3149 10.6168 35.1683 45.3471 -31.9041 -5.6508 -46.3491 77.2131 4.6393 -30.8159 4.0013 -2.4953 26.4561 0.5866 
38.5786 35.9819 15.2361 7.5001 -16.4437 63.7336 63.5414 4.9868 -4.8323 -72.3044 -7.0733 9.6706 -12.0866 2.7661 -13.3241 15.2154 -0.3543 -2.6524 18.7798 5.9432 -9.6150 -50.3965 3.6783 -7.8081 18.1230 -2.1934 -5.4330 20.3183 0.6292 3.5102 -37.3222 -2.3698 4.7352 0.4610 7.0584 6.2125 -11.7486 0.3562 -18.8858 34.7239 17.0522 -25.4235 0.1709 -7.8011 1.2591 47.3880 -50.8862 47.9360 7.2349 71.8262 -92.6104 -3.7242 7.4185 31.7543 -2.4953 -26.4561 -0.5866 0.0617 -0.3323 10.5214 35.9385 43.9783 -31.2005 -5.3178 -46.3040 77.6641 5.1802 -30.0280 5.2686 -2.4953 26.4561 0.5866 
38.4208 35.9338 15.1041 7.5193 -16.6814 63.5652 63.6520 4.8379 -4.9286 -72.6753 -7.1361 9.6906 -11.0346 2.4782 -13.3302 15.9229 -0.3878 -2.7727 18.9163 5.7144 -9.6872 -50.3084 3.6663 -7.7981 17.9982 -2.1167 -5.2446 20.3046 0.6284 3.5080 -37.8545 -2.4602 4.4542 0.9795 8.4686 5.9462 -11.5626 1.0628 -21.2459 34.1974 18.4963 -28.4577 0.1302 -7.2174 1.0363 47.9513 -51.4260 50.0967 5.4253 71.1234 -90.7317 -4.5916 9.0141 32.1389 -2.4953 -26.4561 -0.5866 0.0867 -0.4604 10.6619 36.6546 43.0627 -31.3973 -5.2092 -47.7654 77.9802 5.4145 -29.1913 5.9975 -2.4953 26.4561 0.5866 
38.2700 35.9074 14.9729 7.4625 -17.0940 63.4124 63.9792 4.6190 -5.1034 -72.9745 -7.1868 9.7064 -10.6174 2.3659 -13.3356 15.9859 -0.3909 -2.7834 19.1815 5.4948 -9.8463 -50.1261 3.6414 -7.7773 17.8552 -2.0250 -5.0125 20.5341 0.6425 3.5460 -38.0533 -2.5158 4.1951 0.7742 10.2037 5.7642 -10.1502 1.0174 -23.0810 32.3823 19.6310 -30.4154 0.1328 -7.3057 1.0441 48.3785 -51.9628 51.2681 3.9002 70.3041 -89.1417 -4.8694 9.4055 32.5333 -2.4953 -26.4561 -0.5866 0.1046 -0.5523 10.7274 37.5001 41.6594 -31.0108 -5.1915 -48.6891 78.1030 5.8163 -28.3388 7.1116 -2.4953 26.4561 0.5866 
38.1254 35.8696 14.8558 7.3380 -17.4141 62.9923 64.2064 4.6780 -5.0373 -73.2421 -7.2322 9.7203 -10.0185 2.2464 -13.6347 15.6183 -0.3732 -2.7210 19.4342 5.3246 -9.6648 -50.0938 3.6370 -7.7736 17.7170 -1.9733 -4.9085 20.8651 0.6632 3.6007 -38.2917 -2.7964 4.0845 0.8427 11.9412 5.7613 -9.1186 0.8774 -24.6544 30.9370 20.1363 -31.9310 0.0971 -7.0245 0.7941 49.3463 -52.5552 53.1062 3.3618 71.0234 -88.5545 -4.2689 8.4441 31.9453 -2.4953 -26.4561 -0.5866 0.1876 -0.9984 10.6405 38.1077 40.7033 -30.9043 -4.8250 -48.5350 78.5730 6.1957 -27.5812 8.1955 -2.4953 26.4561 0.5866 
37.9814 35.8098 14.7240 7.2377 -17.5602 62.3457 64.1316 4.9857 -4.7151 -73.5863 -7.2908 9.7379 -9.2736 2.0831 -13.9459 15.6013 -0.3724 -2.7181 19.6064 4.9700 -9.6420 -50.2347 3.6562 -7.7897 17.8818 -2.1006 -5.2515 20.3622 0.6319 3.5175 -38.5882 -2.9641 4.1025 0.7750 12.5276 5.8537 -8.4762 1.4260 -25.8065 30.5096 21.0521 -33.4167 0.0494 -6.4923 0.4367 50.0816 -52.5916 54.0957 3.0958 71.2527 -88.2690 -3.9840 8.1874 31.0607 -2.4953 -26.4561 -0.5866 0.1478 -0.8021 10.4424 38.7516 40.3468 -30.5051 -4.4892 -48.1490 78.9832 6.5761 -26.7723 9.3554 -2.4953 26.4561 0.5866 
